<?xml version="1.0" encoding="UTF-8" standalone="no"?>
<svg
   xmlns:dc="http://purl.org/dc/elements/1.1/"
   xmlns:cc="http://creativecommons.org/ns#"
   xmlns:rdf="http://www.w3.org/1999/02/22-rdf-syntax-ns#"
   xmlns:svg="http://www.w3.org/2000/svg"
   xmlns="http://www.w3.org/2000/svg"
   xmlns:xlink="http://www.w3.org/1999/xlink"
   xmlns:sodipodi="http://sodipodi.sourceforge.net/DTD/sodipodi-0.dtd"
   xmlns:inkscape="http://www.inkscape.org/namespaces/inkscape"
   width="39.423382mm"
   height="7.0063148mm"
   viewBox="0 0 39.423382 7.0063148"
   version="1.1"
   id="svg8"
   sodipodi:docname="logoplain.svg"
   inkscape:version="1.0.1 (c497b03c, 2020-09-10)">
  <sodipodi:namedview
     pagecolor="#ffffff"
     bordercolor="#666666"
     borderopacity="1"
     objecttolerance="10"
     gridtolerance="10"
     guidetolerance="10"
     inkscape:pageopacity="0"
     inkscape:pageshadow="2"
     inkscape:window-width="1405"
     inkscape:window-height="743"
     id="namedview850"
     showgrid="false"
     inkscape:zoom="4.1476021"
     inkscape:cx="74.500879"
     inkscape:cy="13.24028"
     inkscape:window-x="0"
     inkscape:window-y="25"
     inkscape:window-maximized="0"
     inkscape:current-layer="svg8" />
  <defs
     id="defs2">
    <linearGradient
       id="linearGradient3150">
      <stop
         style="stop-color:#a148a8;stop-opacity:1;"
         offset="0"
         id="stop3146" />
      <stop
         style="stop-color:#60a7d3;stop-opacity:1"
         offset="1"
         id="stop3148" />
    </linearGradient>
    <linearGradient
       xlink:href="#linearGradient3150"
       id="linearGradient3152"
       x1="124.60267"
       y1="148.25409"
       x2="124.60267"
       y2="141.14058"
       gradientUnits="userSpaceOnUse" />
    <linearGradient
       xlink:href="#linearGradient3150"
       id="linearGradient3160"
       x1="96.736053"
       y1="148.18198"
       x2="96.736053"
       y2="141.06847"
       gradientUnits="userSpaceOnUse" />
  </defs>
  <metadata
     id="metadata5">
    <rdf:RDF>
      <cc:Work
         rdf:about="">
        <dc:format>image/svg+xml</dc:format>
        <dc:type
           rdf:resource="http://purl.org/dc/dcmitype/StillImage" />
        <dc:title />
      </cc:Work>
    </rdf:RDF>
  </metadata>
  <g
     id="layer1"
     transform="translate(-85.179128,-154.93764)">
    <g
       id="text3136"
       style="font-size:10.5833px;line-height:1.25;font-family:Poppins;-inkscape-font-specification:Poppins;stroke-width:0.264583" />
    <g
       id="g3203"
       transform="translate(-1.5873392e-4,13.831072)">
      <g
         aria-label="DE"
         id="text12"
         style="font-size:10.5833px;line-height:1.25;font-family:Poppins;-inkscape-font-specification:Poppins;letter-spacing:0px;fill:url(#linearGradient3160);fill-opacity:1;stroke:none;stroke-width:0.265;stroke-miterlimit:4;stroke-dasharray:none;stroke-opacity:0.194332">
        <path
           d="m 87.777143,141.10657 q 1.096433,0 1.916289,0.43462 0.819856,0.43462 1.264356,1.22485 0.454378,0.78034 0.454378,1.80763 0,1.01741 -0.454378,1.80763 -0.4445,0.79023 -1.274234,1.22485 -0.819856,0.43462 -1.906411,0.43462 h -2.597857 v -6.9342 z m -0.108656,5.47229 q 0.958145,0 1.491545,-0.52352 0.5334,-0.52352 0.5334,-1.48167 0,-0.95814 -0.5334,-1.49154 -0.5334,-0.5334 -1.491545,-0.5334 h -0.8001 v 4.03013 z"
           style="font-style:normal;font-variant:normal;font-weight:bold;font-stretch:normal;font-size:9.87778px;font-family:Poppins;-inkscape-font-specification:'Poppins Bold';fill:url(#linearGradient3160);fill-opacity:1;stroke:none;stroke-width:0.265;stroke-miterlimit:4;stroke-dasharray:none;stroke-opacity:0.194332"
           id="path853" />
        <path
           d="m 94.045211,142.45983 v 1.40264 h 2.262012 v 1.30387 h -2.262012 v 1.52118 h 2.558345 v 1.35325 h -4.247445 v -6.9342 h 4.247445 v 1.35326 z"
           style="font-style:normal;font-variant:normal;font-weight:bold;font-stretch:normal;font-size:9.87778px;font-family:Poppins;-inkscape-font-specification:'Poppins Bold';fill:url(#linearGradient3160);fill-opacity:1;stroke:none;stroke-width:0.265;stroke-miterlimit:4;stroke-dasharray:none;stroke-opacity:0.194332"
           id="path855" />
      </g>
      <g
         aria-label="ERR"
         id="text16"
         style="font-size:9.87778px;line-height:1.25;font-family:Poppins;-inkscape-font-specification:Poppins;fill:url(#linearGradient3152);fill-opacity:1;stroke-width:0.265;stroke-miterlimit:4;stroke-dasharray:none">
        <path
           d="m 109.06137,142.53194 v 1.40264 h 2.26201 v 1.30387 h -2.26201 v 1.52118 h 2.55835 v 1.35325 h -4.24745 v -6.9342 h 4.24745 v 1.35326 z"
           style="font-style:normal;font-variant:normal;font-weight:bold;font-stretch:normal;font-size:9.87778px;font-family:Poppins;-inkscape-font-specification:'Poppins Bold';fill:url(#linearGradient3152);fill-opacity:1;stroke-width:0.265;stroke-miterlimit:4;stroke-dasharray:none"
           id="path858" />
        <path
           d="m 116.25255,148.11288 -1.44216,-2.61761 h -0.40498 v 2.61761 h -1.6891 v -6.9342 h 2.83492 q 0.81985,0 1.39276,0.28646 0.58279,0.28645 0.86925,0.79022 0.28646,0.49389 0.28646,1.10631 0,0.69145 -0.39512,1.23472 -0.38523,0.54328 -1.14582,0.77047 l 1.6002,2.74602 z m -1.84714,-3.81282 h 1.04704 q 0.46426,0 0.69144,-0.22719 0.23707,-0.22719 0.23707,-0.64205 0,-0.39511 -0.23707,-0.6223 -0.22718,-0.22719 -0.69144,-0.22719 h -1.04704 z"
           style="font-style:normal;font-variant:normal;font-weight:bold;font-stretch:normal;font-size:9.87778px;font-family:Poppins;-inkscape-font-specification:'Poppins Bold';fill:url(#linearGradient3152);fill-opacity:1;stroke-width:0.265;stroke-miterlimit:4;stroke-dasharray:none"
           id="path860" />
        <path
           d="m 122.69626,148.11288 -1.44216,-2.61761 h -0.40499 v 2.61761 h -1.6891 v -6.9342 h 2.83493 q 0.81985,0 1.39276,0.28646 0.58279,0.28645 0.86925,0.79022 0.28645,0.49389 0.28645,1.10631 0,0.69145 -0.39511,1.23472 -0.38523,0.54328 -1.14582,0.77047 l 1.6002,2.74602 z m -1.84715,-3.81282 h 1.04705 q 0.46425,0 0.69144,-0.22719 0.23707,-0.22719 0.23707,-0.64205 0,-0.39511 -0.23707,-0.6223 -0.22719,-0.22719 -0.69144,-0.22719 h -1.04705 z"
           style="font-style:normal;font-variant:normal;font-weight:bold;font-stretch:normal;font-size:9.87778px;font-family:Poppins;-inkscape-font-specification:'Poppins Bold';fill:url(#linearGradient3152);fill-opacity:1;stroke-width:0.265;stroke-miterlimit:4;stroke-dasharray:none"
           id="path862" />
      </g>
      <path
         style="fill:#a148a8;fill-opacity:1;stroke:none;stroke-width:0.264999;stroke-miterlimit:4;stroke-dasharray:none;stroke-opacity:1"
         id="path3172"
         d="m 103.67868,154.47376 -4.935203,8.54803 -4.935204,-8.54803 z"
         transform="matrix(0.71094866,0,0,0.47063642,31.665892,70.300784)" />
    </g>
  </g>
</svg>
